<?xml version="1.0" standalone="no"?>
<!DOCTYPE svg PUBLIC "-//W3C//DTD SVG 20010904//EN"
 "http://www.w3.org/TR/2001/REC-SVG-20010904/DTD/svg10.dtd">
<svg version="1.0" xmlns="http://www.w3.org/2000/svg"
 width="512.000000pt" height="512.000000pt" viewBox="0 0 512.000000 512.000000"
 preserveAspectRatio="xMidYMid meet">

<g transform="translate(0.000000,512.000000) scale(0.100000,-0.100000)" stroke="none">
<path d="M1850 4257 c-27 -8 -212 -187 -813 -786 -466 -464 -787 -792 -800
-816 -28 -54 -28 -136 0 -190 32 -59 1547 -1570 1595 -1590 177 -73 359 110
279 280 -13 27 -205 225 -590 610 -314 313 -571 573 -571 577 0 4 859 9 1909
10 l1909 3 44 30 c138 97 118 306 -34 370 -33 13 -245 15 -1933 15 -1042 0
-1895 3 -1895 7 0 4 263 271 584 593 573 574 584 586 594 635 35 169 -112 302
-278 252z"/>
</g>
</svg>
