<?xml version="1.0" encoding="UTF-8" standalone="no"?>
<!DOCTYPE svg PUBLIC "-//W3C//DTD SVG 1.1//EN" "http://www.w3.org/Graphics/SVG/1.1/DTD/svg11.dtd">
<svg version="1.1" xmlns="http://www.w3.org/2000/svg" xmlns:xlink="http://www.w3.org/1999/xlink" preserveAspectRatio="xMidYMid meet" viewBox="0 0 640 640" width="640" height="640"><defs><path d="M156.98 295.68L176.98 348.18L136.98 348.18L96.98 348.18L116.98 295.68L136.98 243.18L156.98 295.68Z" id="a11eTOC8o9"></path><path d="M241.6 294.87L261.66 348.07L221.55 348.07L181.44 348.07L201.49 294.87L221.55 241.68L241.6 294.87Z" id="a2UNUqkcwR"></path><clipPath id="clipaQ8fuMrYt"><use xlink:href="#a2UNUqkcwR" opacity="1"></use></clipPath><path d="M283.84 294.87L303.9 348.07L263.79 348.07L223.68 348.07L243.73 294.87L263.79 241.68L283.84 294.87Z" id="aR5KmVfwK"></path><clipPath id="clipbyiU8XJKo"><use xlink:href="#aR5KmVfwK" opacity="1"></use></clipPath><path d="M364.53 350.02L303.9 325.93L364.53 298.84L303.9 272.46L364.53 245.02L364.53 350.02Z" id="d34f2TCQb"></path><path d="M45.66 270.39L84.42 243.18L86.88 295.62L89.33 348.07L48.11 322.84L6.9 297.61L45.66 270.39Z" id="audiDJS8c"></path><clipPath id="clipc9tcI1M9c"><use xlink:href="#audiDJS8c" opacity="1"></use></clipPath><path d="M415.48 322.1L381.22 349.09L379.58 297.27L377.94 245.46L413.84 270.28L449.75 295.11L415.48 322.1Z" id="c1jnmVmsrA"></path><clipPath id="clipn3uH0GowCJ"><use xlink:href="#c1jnmVmsrA" opacity="1"></use></clipPath><path d="M404.71 317.59L421.96 310.44L443.78 349.09L420.81 348.14L404.71 317.59Z" id="aYXoJmdYj"></path><path d="M584.14 246.16L624.21 244.83L588.74 295.78L553.27 346.72L548.67 297.11L544.07 247.49L584.14 246.16Z" id="a2tViaynZT"></path><clipPath id="clipa7qZHtu7Dq"><use xlink:href="#a2tViaynZT" opacity="1"></use></clipPath><path d="M594.41 346.86L553.08 348.18L589.64 295.68L626.2 243.18L630.97 294.35L635.73 345.53L594.41 346.86Z" id="ccJGKgpcS"></path><clipPath id="clipeJf2IlEW5"><use xlink:href="#ccJGKgpcS" opacity="1"></use></clipPath><path d="M622.44 250.71L557.29 344.82" id="d3E50iiZwe"></path><path d="M518.01 271.27L538.01 297.52L498.01 297.52L458.01 297.52L478.01 271.27L498.01 245.02L518.01 271.27Z" id="f1jWHHZaYc"></path><path d="M478.01 323.77L458.01 297.52L498.01 297.52L538.01 297.52L518.01 323.77L498.01 350.02L478.01 323.77Z" id="i2RcVQaz8i"></path><path d="M532.76 297.52L463.26 297.52" id="d2JRxECIf6"></path><path d="" id="g12HfGoUZh"></path></defs><g><g><g><use xlink:href="#a11eTOC8o9" opacity="1" fill="#484848" fill-opacity="1"></use></g><g><g><g clip-path="url(#clipaQ8fuMrYt)"><use xlink:href="#a2UNUqkcwR" opacity="1" fill-opacity="0" stroke="#484848" stroke-width="30" stroke-opacity="1"></use></g></g><g><g clip-path="url(#clipbyiU8XJKo)"><use xlink:href="#aR5KmVfwK" opacity="1" fill-opacity="0" stroke="#484848" stroke-width="30" stroke-opacity="1"></use></g></g></g><g><use xlink:href="#d34f2TCQb" opacity="1" fill="#484848" fill-opacity="1"></use><g><use xlink:href="#d34f2TCQb" opacity="1" fill-opacity="0" stroke="#484848" stroke-width="2" stroke-opacity="1"></use></g></g><g><g clip-path="url(#clipc9tcI1M9c)"><use xlink:href="#audiDJS8c" opacity="1" fill-opacity="0" stroke="#484848" stroke-width="30" stroke-opacity="1"></use></g></g><g><g><g clip-path="url(#clipn3uH0GowCJ)"><use xlink:href="#c1jnmVmsrA" opacity="1" fill-opacity="0" stroke="#484848" stroke-width="30" stroke-opacity="1"></use></g></g><g><use xlink:href="#aYXoJmdYj" opacity="1" fill="#484848" fill-opacity="1"></use></g></g><g><g><g><g clip-path="url(#clipa7qZHtu7Dq)"><use xlink:href="#a2tViaynZT" opacity="1" fill-opacity="0" stroke="#484848" stroke-width="30" stroke-opacity="1"></use></g></g><g><g clip-path="url(#clipeJf2IlEW5)"><use xlink:href="#ccJGKgpcS" opacity="1" fill-opacity="0" stroke="#484848" stroke-width="30" stroke-opacity="1"></use></g></g></g><g><g><use xlink:href="#d3E50iiZwe" opacity="1" fill-opacity="0" stroke="#484848" stroke-width="7" stroke-opacity="1"></use></g></g></g><g><g><g><use xlink:href="#f1jWHHZaYc" opacity="1" fill="#484848" fill-opacity="1"></use></g><g><use xlink:href="#i2RcVQaz8i" opacity="1" fill="#484848" fill-opacity="1"></use></g></g><g><g><use xlink:href="#d2JRxECIf6" opacity="1" fill-opacity="0" stroke="#484848" stroke-width="2" stroke-opacity="1"></use></g></g></g><g><g><use xlink:href="#g12HfGoUZh" opacity="1" fill-opacity="0" stroke="#484848" stroke-width="15" stroke-opacity="1"></use></g></g></g></g></svg>