<?xml version="1.0" encoding="iso-8859-1"?>
<!-- Generator: Adobe Illustrator 19.0.0, SVG Export Plug-In . SVG Version: 6.00 Build 0)  -->
<svg version="1.1" id="Layer_1" xmlns="http://www.w3.org/2000/svg" xmlns:xlink="http://www.w3.org/1999/xlink" x="0px" y="0px"
	 viewBox="0 0 512 512" style="enable-background:new 0 0 512 512;" xml:space="preserve">
<g>
	<g>
		
			<rect x="198.66" y="412.15" transform="matrix(0.9763 0.2165 -0.2165 0.9763 100.8307 -34.0314)" width="14.111" height="61.938"/>
	</g>
	<g>
		<rect x="7.051" y="347.883" width="497.899" height="14.109"/>
	</g>
	<g>
		<g>
			
				<rect x="248.978" y="116.96" transform="matrix(0.9299 0.3678 -0.3678 0.9299 90.5069 -80.3425)" width="14.101" height="160.619"/>
		</g>
		<g>
			<g>
				<g>
					<polygon points="325.271,247.282 315.303,237.306 355.329,197.274 315.296,157.237 325.28,147.261 375.28,197.274 					"/>
				</g>
			</g>
			<g>
				<g>
					<polygon points="186.793,247.282 136.777,197.274 186.793,147.261 196.761,157.237 156.729,197.274 196.761,237.306 					"/>
				</g>
			</g>
		</g>
	</g>
	<g>
		<path d="M480.946,330.893H31.119V79.006c0-8.464,6.881-15.353,15.349-15.353h419.129c8.468,0,15.349,6.888,15.349,15.353V330.893z
			 M45.22,316.784h421.626V79.006c0-0.685-0.559-1.244-1.248-1.244H46.468c-0.689,0-1.248,0.559-1.248,1.244V316.784z"/>
	</g>
	<g>
		<path d="M23.648,419.942C10.609,419.942,0,409.33,0,396.291V55.242c0-13.039,10.609-23.651,23.648-23.651h464.705
			c13.038,0,23.647,10.612,23.647,23.651v341.045c0,13.039-10.609,23.651-23.647,23.651L23.648,419.942z M23.648,45.7
			c-5.259,0-9.546,4.279-9.546,9.542v341.049c0,5.264,4.287,9.542,9.546,9.542l464.705-0.004c5.259,0,9.546-4.279,9.546-9.542
			V55.242c0-5.264-4.287-9.542-9.546-9.542H23.648z"/>
	</g>
	<g>
		<rect x="231.105" y="377.823" width="49.79" height="14.109"/>
	</g>
	<g>
		
			<rect x="275.315" y="436.063" transform="matrix(0.2164 0.9763 -0.9763 0.2164 672.6186 48.1964)" width="61.938" height="14.112"/>
	</g>
	<g>
		<rect x="163.471" y="466.3" width="185.058" height="14.109"/>
	</g>
</g>
</svg>
